<svg width="22" height="24" viewBox="0 0 22 24" fill="none" xmlns="http://www.w3.org/2000/svg">
<path d="M21.7226 4.93766C21.6402 4.87522 21.5412 4.8351 21.4365 4.82159C21.3317 4.80808 21.225 4.82169 21.1278 4.86097L11.6614 8.72592C11.2499 8.89501 10.7344 8.97539 10.2052 8.97539C9.46732 8.97817 8.70394 8.81647 8.17182 8.59657C8.00967 8.53217 7.85527 8.45164 7.71125 8.35634C7.75044 8.33786 7.79944 8.31753 7.85334 8.2972L16.4632 4.78244L17.7469 5.29986V3.78733C17.7489 3.67946 17.7249 3.57258 17.6769 3.47467C17.6289 3.37675 17.558 3.29033 17.4696 3.22186C17.3875 3.15949 17.2889 3.11939 17.1845 3.10588C17.08 3.09236 16.9736 3.10595 16.8767 3.14517L7.4104 7.01012C7.11837 7.12099 6.86751 7.25774 6.65584 7.45639C6.41073 7.68439 6.27152 7.99474 6.26876 8.31938C6.26876 8.32862 6.2717 8.34433 6.2717 8.34433V21.9543L6.26974 21.9728C6.26974 21.9765 6.27268 21.9784 6.27268 21.9821V21.9968H6.27464C6.29424 22.4727 6.54902 22.7757 6.79205 22.9901C7.55641 23.6258 8.84015 23.9815 10.2062 24C10.853 24 11.5095 23.9076 12.1171 23.6618L21.5864 19.796C21.8363 19.6943 21.9999 19.4421 21.9999 19.1566V5.50313C22.0014 5.39533 21.9773 5.28858 21.9293 5.19073C21.8813 5.09287 21.8107 5.0064 21.7226 4.93766ZM15.7184 2.35056C15.7018 2.14729 15.6126 1.95325 15.4539 1.83684C15.3714 1.77439 15.2725 1.73427 15.1677 1.72076C15.0629 1.70725 14.9562 1.72086 14.859 1.76015L5.39268 5.62325C4.9811 5.79141 4.46466 5.87272 3.93647 5.87272C3.19856 5.87457 2.43518 5.71287 1.90307 5.49204C1.74075 5.42872 1.5863 5.34878 1.44249 5.25366C1.48169 5.23518 1.53069 5.21485 1.58458 5.19453L10.1954 1.67976L11.4792 2.19718V0.686498C11.4809 0.578571 11.4568 0.471665 11.4086 0.373754C11.3604 0.275843 11.2894 0.189454 11.2009 0.121031C11.1186 0.0586679 11.0198 0.0185858 10.9152 0.00507672C10.8106 -0.00843231 10.7041 0.00514058 10.607 0.0443418L1.14066 3.91021C0.848639 4.02109 0.598751 4.15691 0.386101 4.35649C0.14135 4.58464 0.00250702 4.89497 0 5.21947C0 5.23056 0.00293964 5.24534 0.00293964 5.24534V18.8988H0.00489987C0.0244989 19.3746 0.279286 19.6777 0.522315 19.892C1.28668 20.5277 2.57042 20.8825 3.93745 20.901C4.30869 20.899 4.67874 20.8612 5.04186 20.7883V8.3434C5.03206 7.69663 5.30644 7.07572 5.78858 6.62852C6.12261 6.32302 6.51948 6.08529 6.95472 5.93L15.7184 2.35056Z" fill="white"/>
</svg>
