<svg width="24" height="27" viewBox="0 0 24 27" fill="none" xmlns="http://www.w3.org/2000/svg">
<path d="M28.1883 30.8651L17.0255 18.9343C16.1534 19.7732 15.1432 20.4101 13.995 20.8451C12.8467 21.2801 11.6912 21.4976 10.5284 21.4976C7.76678 21.4976 5.4194 20.4722 3.48626 18.4216C1.55312 16.371 0.586548 13.8699 0.586548 10.9183C0.586548 7.96663 1.54585 5.46551 3.46445 3.4149C5.38306 1.36429 7.72318 0.338989 10.4848 0.338989C13.2464 0.338989 15.5938 1.36429 17.527 3.4149C19.4601 5.46551 20.4267 7.96663 20.4267 10.9183C20.4267 12.1921 20.2159 13.4427 19.7944 14.67C19.3729 15.8972 18.7697 16.9769 17.9848 17.909L29.1912 29.7932L28.1883 30.8651ZM10.5284 20.0528C12.9412 20.0528 14.9761 19.1751 16.6331 17.4196C18.29 15.6642 19.1185 13.4971 19.1185 10.9183C19.1185 8.33947 18.29 6.16458 16.6331 4.3936C14.9761 2.62262 12.9412 1.73713 10.5284 1.73713C8.11562 1.73713 6.08073 2.62262 4.42376 4.3936C2.76678 6.16458 1.93829 8.33947 1.93829 10.9183C1.93829 13.4971 2.76678 15.6642 4.42376 17.4196C6.08073 19.1751 8.11562 20.0528 10.5284 20.0528Z" fill="white"/>
</svg>
