<svg width="20" height="20" viewBox="0 0 20 20" fill="none" xmlns="http://www.w3.org/2000/svg">
<path d="M17.352 5.61699L13.392 2.05399C12.265 1.03899 11.702 0.530991 11.009 0.265991L11 2.99999C11 5.35699 11 6.53599 11.732 7.26799C12.464 7.99999 13.643 7.99999 16 7.99999H19.58C19.218 7.29599 18.568 6.71199 17.352 5.61699Z" fill="white"/>
<path fill-rule="evenodd" clip-rule="evenodd" d="M8 20H12C15.771 20 17.657 20 18.828 18.828C20 17.657 20 15.771 20 12V11.563C20 10.69 20 10.034 19.957 9.5H15.905C14.808 9.5 13.838 9.5 13.057 9.395C12.21 9.281 11.363 9.02 10.672 8.329C9.98 7.637 9.719 6.79 9.605 5.943C9.5 5.162 9.5 4.193 9.5 3.095L9.51 0.261C9.51 0.178 9.517 0.097 9.53 0.017C9.121 -4.09782e-08 8.636 0 8.03 0C4.239 0 2.343 -1.19209e-07 1.172 1.172C-1.19209e-07 2.343 0 4.229 0 8V12C0 15.771 -1.19209e-07 17.657 1.172 18.828C2.343 20 4.229 20 8 20ZM7.013 10.953C6.87399 10.8227 6.69057 10.7501 6.5 10.7501C6.30943 10.7501 6.12601 10.8227 5.987 10.953L3.987 12.828C3.84531 12.9649 3.76315 13.152 3.75829 13.3489C3.75342 13.5459 3.82624 13.7368 3.961 13.8805C4.09576 14.0242 4.28165 14.1091 4.47849 14.1169C4.67534 14.1246 4.86734 14.0546 5.013 13.922L5.75 13.232V16.5C5.75 16.6989 5.82902 16.8897 5.96967 17.0303C6.11032 17.171 6.30109 17.25 6.5 17.25C6.69891 17.25 6.88968 17.171 7.03033 17.0303C7.17098 16.8897 7.25 16.6989 7.25 16.5V13.231L7.987 13.922C8.13266 14.0546 8.32466 14.1246 8.52151 14.1169C8.71835 14.1091 8.90424 14.0242 9.039 13.8805C9.17376 13.7368 9.24658 13.5459 9.24171 13.3489C9.23685 13.152 9.15469 12.9649 9.013 12.828L7.013 10.953Z" fill="white"/>
</svg>
