<svg width="44" height="39" viewBox="0 0 44 39" fill="none" xmlns="http://www.w3.org/2000/svg">
<path d="M6.57134 38.7374H3.31863C2.67162 38.7374 2.05112 38.5378 1.59361 38.1826C1.13611 37.8274 0.879089 37.3457 0.879089 36.8434V25.4793C0.879089 24.977 1.13611 24.4953 1.59361 24.1401C2.05112 23.7849 2.67162 23.5853 3.31863 23.5853H6.57134C7.21835 23.5853 7.83886 23.7849 8.29636 24.1401C8.75386 24.4953 9.01088 24.977 9.01088 25.4793V36.8434C9.01088 37.3457 8.75386 37.8274 8.29636 38.1826C7.83886 38.5378 7.21835 38.7374 6.57134 38.7374ZM29.3404 38.7374H26.0877C25.4406 38.7374 24.8201 38.5378 24.3626 38.1826C23.9051 37.8274 23.6481 37.3457 23.6481 36.8434V17.9033C23.6481 17.401 23.9051 16.9193 24.3626 16.5641C24.8201 16.2089 25.4406 16.0093 26.0877 16.0093H29.3404C29.9874 16.0093 30.6079 16.2089 31.0654 16.5641C31.5229 16.9193 31.7799 17.401 31.7799 17.9033V36.8434C31.7799 37.3457 31.5229 37.8274 31.0654 38.1826C30.6079 38.5378 29.9874 38.7374 29.3404 38.7374ZM40.7249 38.7374H37.4722C36.8252 38.7374 36.2047 38.5378 35.7471 38.1826C35.2896 37.8274 35.0326 37.3457 35.0326 36.8434V9.06465C35.0326 8.56233 35.2896 8.08058 35.7471 7.72538C36.2047 7.37019 36.8252 7.17064 37.4722 7.17064H40.7249C41.3719 7.17064 41.9924 7.37019 42.4499 7.72538C42.9074 8.08058 43.1644 8.56233 43.1644 9.06465V36.8434C43.1644 37.3457 42.9074 37.8274 42.4499 38.1826C41.9924 38.5378 41.3719 38.7374 40.7249 38.7374ZM17.9559 38.7374H14.7031C14.0561 38.7374 13.4356 38.5378 12.9781 38.1826C12.5206 37.8274 12.2636 37.3457 12.2636 36.8434V2.7513C12.2636 2.24898 12.5206 1.76724 12.9781 1.41204C13.4356 1.05685 14.0561 0.8573 14.7031 0.8573H17.9559C18.6029 0.8573 19.2234 1.05685 19.6809 1.41204C20.1384 1.76724 20.3954 2.24898 20.3954 2.7513V36.8434C20.3954 37.3457 20.1384 37.8274 19.6809 38.1826C19.2234 38.5378 18.6029 38.7374 17.9559 38.7374Z" fill="black"/>
</svg>
