<svg width="22" height="24" viewBox="0 0 22 24" fill="none" xmlns="http://www.w3.org/2000/svg">
<path d="M11 0C12.4587 0 13.8576 0.632141 14.8891 1.75736C15.9205 2.88258 16.5 4.4087 16.5 6C16.5 7.5913 15.9205 9.11742 14.8891 10.2426C13.8576 11.3679 12.4587 12 11 12C9.54131 12 8.14236 11.3679 7.11091 10.2426C6.07946 9.11742 5.5 7.5913 5.5 6C5.5 4.4087 6.07946 2.88258 7.11091 1.75736C8.14236 0.632141 9.54131 0 11 0ZM11 15C17.0775 15 22 17.685 22 21V24H0V21C0 17.685 4.9225 15 11 15Z" fill="white"/>
</svg>
